<?xml version="1.0" standalone="no"?>
<!DOCTYPE svg PUBLIC "-//W3C//DTD SVG 20010904//EN"
 "http://www.w3.org/TR/2001/REC-SVG-20010904/DTD/svg10.dtd">
<svg version="1.0" xmlns="http://www.w3.org/2000/svg"
 width="740.000000pt" height="416.000000pt" viewBox="0 0 740.000000 416.000000"
 preserveAspectRatio="xMidYMid meet">

<g transform="translate(0.000000,416.000000) scale(0.100000,-0.100000)"
fill="#000000" stroke="none">
<path d="M27 4097 c-24 -54 -27 -74 -27 -163 l0 -101 301 -8 c165 -4 303 -4
307 0 4 3 16 80 27 171 l20 164 -100 0 -100 0 0 -67 0 -68 -95 -7 c-52 -4
-119 -9 -148 -12 -60 -5 -59 -7 -87 97 -15 51 -19 57 -43 57 -23 -1 -31 -9
-55 -63z"/>
<path d="M830 4157 c0 -10 -41 -306 -45 -323 -4 -20 2 -21 117 -33 66 -6 123
-10 125 -8 4 4 83 346 83 360 0 4 -63 7 -140 7 -77 0 -140 -1 -140 -3z"/>
<path d="M1313 4133 c-3 -16 -37 -153 -73 -306 -37 -152 -69 -280 -72 -283 -3
-2 -133 18 -290 46 -178 31 -313 50 -361 50 l-78 0 3 -97 3 -98 400 -66 c220
-37 403 -64 407 -60 3 3 63 170 131 371 69 201 132 385 141 409 9 24 16 47 16
52 0 5 -49 9 -110 9 l-110 0 -7 -27z"/>
<path d="M1671 4034 c-28 -70 -50 -128 -48 -130 2 -2 30 9 63 25 32 15 123 56
202 90 78 35 142 66 142 70 0 3 -9 21 -20 39 l-20 32 -133 0 -133 0 -53 -126z"/>
<path d="M2276 4148 c4 -7 27 -41 51 -74 24 -34 43 -64 43 -66 0 -2 -184 -87
-409 -188 l-409 -184 -89 -288 c-56 -184 -93 -288 -101 -288 -7 0 -218 47
-469 106 -251 58 -461 103 -467 101 -10 -4 -189 -287 -370 -585 l-56 -92 2
-187 3 -187 39 57 c25 36 45 56 53 53 8 -3 63 -35 124 -71 61 -36 112 -65 115
-65 4 0 104 147 104 154 0 2 -61 37 -135 76 -74 40 -135 76 -135 79 0 4 16 34
36 67 20 32 83 140 140 239 57 98 108 183 114 189 6 6 28 5 62 -2 29 -6 235
-46 458 -88 223 -42 406 -77 407 -78 0 0 4 -64 7 -141 4 -77 9 -177 12 -223
l6 -82 159 -173 c87 -94 157 -176 156 -182 -2 -5 -187 -133 -412 -283 -390
-261 -409 -272 -426 -255 -54 56 -269 319 -269 329 0 11 436 557 450 562 8 3
120 -118 120 -130 0 -4 -24 -36 -54 -71 -30 -35 -78 -93 -108 -129 -29 -36
-79 -98 -112 -137 l-59 -71 33 -75 c18 -41 36 -75 41 -75 5 0 130 93 279 206
l271 206 -93 100 c-51 56 -110 121 -131 145 l-39 43 4 136 c3 128 2 135 -17
139 -11 3 -151 34 -312 70 -160 36 -298 65 -305 65 -8 0 -38 -55 -70 -125
l-56 -125 37 -9 c20 -5 84 -20 144 -33 59 -12 107 -26 107 -30 0 -8 -326 -538
-339 -551 -4 -4 -97 44 -207 106 l-199 115 -3 -97 -3 -96 77 -72 76 -72 -57
-103 c-32 -57 -66 -115 -77 -130 -16 -24 -18 -49 -18 -262 0 -130 3 -236 8
-236 4 0 91 40 194 89 170 81 188 87 201 72 25 -28 357 -530 357 -539 0 -5
-94 -134 -209 -287 l-209 -278 56 -65 57 -64 127 131 c118 121 129 130 142
114 8 -10 48 -60 90 -110 42 -51 76 -95 76 -98 0 -3 -19 -14 -42 -25 l-43 -19
118 0 c91 -1 117 2 117 12 0 8 -13 189 -29 403 -17 214 -31 411 -33 439 l-2
50 80 45 c44 25 91 53 104 63 39 27 50 22 50 -25 -1 -24 12 -236 27 -471 l27
-428 73 -45 74 -44 154 0 c152 0 155 0 159 23 8 36 86 561 86 577 0 10 -24 22
-75 36 -42 12 -77 19 -79 15 -2 -3 -6 -51 -10 -106 -10 -148 -35 -397 -39
-402 -3 -2 -40 18 -83 45 -70 43 -79 53 -82 82 -3 31 43 531 53 578 4 17 11
21 28 18 12 -3 126 -28 253 -56 127 -27 235 -50 239 -50 8 0 9 7 -56 -419 -27
-177 -49 -327 -49 -332 0 -5 47 -9 105 -9 58 0 105 3 105 7 0 4 32 187 71 406
38 220 69 400 67 401 -10 8 -877 486 -885 488 -10 3 -202 -114 -412 -249
l-114 -74 -38 38 c-92 94 -492 529 -496 540 -3 7 17 43 43 80 l48 67 251 -258
252 -258 224 166 c123 91 229 166 235 166 6 0 53 -24 105 -54 52 -29 256 -140
454 -246 482 -258 535 -288 535 -307 0 -19 -139 -872 -146 -895 -5 -17 6 -18
130 -18 l135 0 5 33 c3 17 12 171 21 342 9 171 23 416 31 545 7 129 17 317 20
418 4 106 12 188 18 196 12 16 167 78 175 71 2 -3 -1 -60 -7 -127 -7 -68 -32
-406 -57 -753 -25 -347 -46 -646 -47 -665 -3 -34 -2 -35 52 -47 30 -7 77 -12
105 -10 l50 2 57 278 c31 153 59 285 62 292 4 11 33 1 123 -41 186 -87 668
-317 672 -321 4 -3 -15 -146 -26 -190 -5 -23 -4 -23 91 -23 53 0 96 4 96 8 0
5 -11 19 -25 32 -14 13 -25 28 -25 33 0 5 26 46 58 90 32 45 122 174 199 287
187 273 427 619 450 648 l18 24 234 -161 c128 -89 238 -163 243 -164 5 -1 34
34 65 78 229 334 510 725 522 725 12 0 483 -304 522 -337 16 -13 13 -21 -28
-96 -25 -45 -47 -84 -49 -86 -2 -3 -19 6 -37 19 -65 49 -358 240 -367 240 -9
0 -80 -98 -80 -111 0 -4 61 -44 136 -89 74 -45 133 -87 131 -94 -2 -6 -68
-216 -147 -466 -78 -250 -153 -483 -166 -517 l-23 -63 139 0 c137 0 140 0 144
22 3 13 19 138 35 278 l30 254 57 84 c31 46 63 86 69 88 7 3 53 -13 103 -35
49 -23 94 -41 100 -41 5 0 27 33 47 73 77 149 218 412 225 420 6 6 665 46 778
47 21 0 22 4 22 67 l0 67 -61 62 -62 62 62 70 61 69 -2 264 -3 264 -37 20 -36
19 39 56 39 56 -2 304 -3 304 -89 -299 c-49 -165 -95 -305 -103 -311 -11 -10
-173 -27 -181 -19 -3 2 132 551 184 754 l17 63 71 -6 c39 -4 79 -9 89 -12 15
-5 17 5 17 113 l0 118 -97 37 c-54 20 -103 38 -110 40 -11 3 -333 -533 -333
-553 0 -5 12 -15 28 -23 58 -30 62 -43 41 -121 -10 -38 -42 -159 -70 -267
l-52 -197 -54 -7 c-30 -3 -58 -3 -62 2 -18 20 -43 105 -39 131 3 15 25 95 49
177 l44 149 -63 56 c-34 31 -62 60 -62 65 0 4 18 38 39 74 22 37 130 240 240
452 111 211 204 386 207 389 2 2 26 -10 52 -29 26 -18 91 -62 145 -97 l97 -63
0 129 0 129 -110 62 c-60 33 -110 67 -110 75 0 7 11 35 25 62 13 27 40 86 59
131 l35 82 -194 0 -194 0 -10 -37 c-6 -21 -18 -71 -27 -111 -9 -40 -22 -76
-28 -78 -7 -3 -124 -20 -260 -38 l-247 -32 -62 35 -62 36 -44 113 -45 112
-185 -2 -185 -3 -29 -80 c-16 -44 -78 -203 -137 -352 -76 -192 -104 -275 -96
-282 6 -4 29 -14 51 -21 69 -22 445 -171 445 -177 0 -2 -20 -28 -45 -56 -25
-29 -45 -54 -45 -57 0 -3 67 -73 150 -155 96 -96 153 -146 159 -140 6 6 105
208 221 450 116 242 215 443 219 448 9 9 201 -90 207 -108 3 -7 -8 -35 -24
-61 -16 -27 -127 -238 -247 -469 l-217 -420 27 -120 c14 -66 43 -192 64 -279
l38 -160 174 -69 c96 -37 178 -73 184 -78 6 -6 1 -42 -14 -102 -35 -135 -31
-131 -94 -106 -28 11 -135 52 -237 91 -102 38 -190 75 -196 82 -6 6 -50 163
-99 348 l-88 337 -251 249 c-371 367 -358 356 -460 394 l-89 32 -17 -21 c-9
-12 -74 -163 -145 -337 -90 -222 -132 -316 -143 -316 -8 0 -106 42 -216 94
-111 52 -264 124 -341 159 l-140 64 -3 62 c-2 43 1 63 10 66 7 3 137 -27 288
-65 151 -39 276 -67 277 -63 2 4 63 118 137 252 128 234 136 246 187 280 l54
36 132 328 131 327 -337 0 -338 0 -128 -282 c-70 -156 -129 -285 -131 -287 -2
-2 -90 31 -195 73 -105 42 -192 76 -193 74 -2 -2 -32 -177 -68 -390 l-65 -388
35 -145 c20 -80 33 -147 31 -149 -2 -1 -85 -63 -183 -136 -172 -127 -180 -132
-195 -113 -9 10 -112 136 -228 278 l-213 260 -251 99 c-138 55 -253 105 -256
113 -3 7 18 97 46 200 76 285 76 280 60 302 -21 30 -307 379 -358 438 l-46 53
-128 0 c-100 0 -127 -3 -121 -12z m2864 -49 c50 -27 90 -52 90 -53 0 -2 -35
-70 -78 -152 -43 -82 -148 -284 -232 -449 -84 -165 -154 -302 -156 -304 -2 -2
-403 127 -411 133 -3 3 19 200 23 205 3 3 70 -18 151 -45 101 -34 147 -45 150
-37 2 6 63 132 135 280 71 147 152 314 179 371 26 56 51 102 54 102 3 0 46
-23 95 -51z m-2523 -350 l69 -96 -33 -334 c-18 -184 -29 -335 -25 -337 29 -10
223 -129 224 -137 1 -5 -34 -32 -77 -59 l-78 -50 -36 21 c-204 115 -221 127
-221 153 1 14 11 187 24 385 13 198 23 361 22 362 -1 1 -112 -54 -248 -123
-240 -120 -247 -125 -258 -161 -7 -21 -53 -156 -102 -301 -82 -241 -90 -273
-98 -370 -7 -93 -6 -109 9 -123 9 -9 218 -161 464 -339 347 -249 453 -321 470
-317 12 3 98 35 190 71 l168 66 272 -154 c637 -359 599 -336 593 -362 -11 -43
-25 -74 -35 -74 -5 0 -200 85 -434 189 l-424 189 -198 -69 c-109 -38 -204 -69
-212 -69 -7 0 -206 145 -441 323 -235 178 -467 352 -516 387 l-88 65 7 238 7
238 103 291 c58 160 107 293 110 296 13 14 711 308 716 303 4 -3 38 -49 76
-102z m3533 -53 c105 -52 191 -97 192 -101 2 -15 -75 -185 -84 -185 -13 0
-418 201 -418 207 0 10 105 173 112 173 4 0 93 -42 198 -94z m-3862 -580 c39
-26 72 -53 72 -60 0 -8 -21 -76 -46 -151 -37 -114 -43 -140 -32 -150 7 -7 105
-66 218 -130 l205 -118 55 21 c103 37 365 140 423 166 32 14 61 26 66 26 5 0
44 -44 87 -97 43 -54 161 -198 263 -321 l185 -222 25 22 c14 13 86 80 161 149
74 69 194 176 265 239 72 62 153 135 180 161 l50 49 207 -123 c113 -67 221
-130 238 -140 17 -9 30 -21 28 -26 -3 -9 -124 -140 -501 -542 l-137 -147 55
-213 c30 -117 55 -223 55 -235 0 -13 -9 -58 -21 -99 -21 -77 -13 -64 -393
-658 l-76 -118 -29 23 c-15 13 -113 95 -217 182 -104 88 -191 161 -193 163 -2
1 28 91 68 199 40 108 71 197 69 199 -6 7 -241 105 -244 102 -1 -1 -18 -128
-38 -282 -20 -154 -39 -290 -41 -302 -5 -21 -8 -20 -105 24 -62 29 -100 52
-100 62 0 22 100 784 104 797 3 7 134 -44 338 -132 183 -79 337 -145 341 -147
8 -2 -73 -227 -134 -371 -16 -38 -26 -72 -21 -75 5 -3 48 -39 96 -80 74 -63
89 -72 100 -60 7 8 82 128 165 268 l153 253 -36 127 c-19 69 -53 191 -75 270
l-40 143 279 291 279 291 -87 58 c-48 32 -91 58 -97 58 -5 0 -156 -146 -335
-325 l-325 -325 -289 330 c-159 182 -292 333 -296 335 -4 2 -121 -41 -261 -96
-220 -87 -257 -98 -274 -88 -11 7 -159 98 -330 201 -223 136 -310 194 -308
206 1 9 34 120 75 245 56 176 76 227 88 224 8 -2 48 -25 88 -51z m3410 -339
l212 -213 121 -379 c67 -209 124 -381 127 -383 4 -1 77 -48 162 -103 l155
-102 220 18 c134 11 223 22 227 29 4 6 11 27 14 46 10 53 92 372 98 377 3 4
207 -99 225 -114 2 -1 -10 -49 -28 -106 -17 -56 -51 -171 -74 -255 -24 -84
-48 -156 -53 -161 -8 -8 -601 -71 -667 -71 -14 0 -116 64 -252 158 l-229 157
-57 155 c-31 85 -97 259 -147 385 -78 200 -99 244 -158 327 -37 54 -69 96 -70
95 -7 -10 -117 -273 -117 -281 0 -7 70 -143 156 -305 87 -161 157 -296 157
-300 -1 -10 -138 -146 -143 -141 -3 3 -71 124 -152 270 -81 146 -150 268 -154
273 -4 4 -45 -34 -92 -85 -46 -51 -150 -163 -230 -248 l-146 -155 -6 -95 -7
-95 126 -94 127 -93 83 88 c46 49 83 93 84 98 0 4 -31 59 -70 120 -38 62 -70
118 -70 124 0 14 110 182 119 182 7 0 3 7 152 -254 60 -104 109 -191 109 -193
0 -2 -57 -72 -127 -154 -71 -83 -149 -176 -176 -207 -26 -31 -51 -58 -56 -60
-5 -2 -42 23 -82 56 -41 32 -119 92 -175 134 l-100 76 -68 183 c-37 101 -70
192 -73 202 -4 12 38 61 153 179 455 466 420 426 452 508 17 41 80 185 140
320 139 311 134 300 141 300 3 0 102 -96 219 -213z m-3659 -848 c24 -33 42
-61 40 -63 -56 -40 -188 -161 -182 -166 4 -4 119 -83 256 -175 136 -92 249
-170 251 -174 2 -3 -4 -48 -12 -99 -11 -65 -19 -91 -27 -88 -7 2 -152 95 -321
207 -170 111 -351 229 -401 262 -51 32 -93 63 -93 67 0 5 96 79 213 165 182
134 213 154 222 140 6 -9 30 -44 54 -76z"/>
<path d="M2800 4155 c0 -3 82 -110 182 -238 100 -128 185 -237 189 -242 4 -6
-21 -101 -56 -210 -36 -110 -65 -205 -65 -211 0 -6 53 -34 118 -64 64 -29 185
-87 267 -128 l150 -74 118 -159 c66 -87 124 -159 131 -159 6 0 33 19 60 43
l49 42 -11 50 c-6 28 -16 102 -23 165 l-12 115 77 425 c92 504 85 470 102 470
8 0 108 -29 222 -65 114 -36 212 -65 218 -65 7 0 19 18 28 41 9 22 39 90 66
150 28 59 50 111 50 114 0 3 -44 4 -97 3 l-98 -3 -3 -27 c-4 -35 -12 -35 -132
-1 l-95 27 -497 3 c-484 3 -498 3 -498 -16 0 -11 49 -66 120 -135 l121 -116
-20 -42 c-10 -24 -31 -72 -46 -108 -15 -36 -30 -68 -34 -73 -4 -4 -95 105
-201 243 l-195 250 -92 0 c-51 0 -93 -2 -93 -5z m975 -56 c47 -12 85 -24 85
-28 0 -8 -64 -353 -126 -678 -35 -183 -52 -253 -62 -253 -7 0 -61 26 -120 59
-59 32 -150 80 -202 106 -52 26 -96 49 -98 50 -6 5 89 165 98 165 5 0 50 -23
101 -50 51 -28 94 -48 97 -45 6 6 38 168 88 450 43 244 43 245 50 245 2 0 43
-10 89 -21z"/>
<path d="M6370 4150 c0 -6 9 -29 21 -51 18 -36 23 -40 47 -34 188 44 282 72
282 82 0 10 -41 13 -175 13 -114 0 -175 -4 -175 -10z"/>
<path d="M0 3338 c0 -166 4 -298 8 -292 5 5 55 85 111 178 l102 168 -10 106
c-6 58 -11 114 -11 124 0 16 -10 18 -100 18 l-100 0 0 -302z"/>
<path d="M232 1018 c-30 -17 -56 -37 -59 -44 -2 -7 14 -69 36 -139 23 -69 41
-133 41 -141 0 -8 -48 -94 -107 -190 -87 -143 -110 -173 -125 -168 -17 5 -18
-4 -18 -165 l0 -171 130 0 130 0 -55 75 -55 75 179 269 180 269 -22 39 c-12
21 -57 103 -100 181 -43 78 -84 142 -90 141 -7 0 -36 -14 -65 -31z"/>
<path d="M5426 788 l-166 -263 -190 -180 -190 -180 82 -82 83 -83 181 0 181 0
12 27 c7 15 75 200 152 412 77 212 152 415 166 449 14 35 21 68 17 72 -10 10
-151 90 -158 90 -2 0 -79 -118 -170 -262z"/>
<path d="M7340 904 c-46 -88 -52 -107 -40 -114 8 -4 33 -23 55 -40 l40 -32 3
77 c2 42 2 107 0 145 l-3 69 -55 -105z"/>
<path d="M6902 965 c-175 -14 -155 -2 -228 -139 -26 -49 -95 -174 -154 -277
l-106 -187 -103 44 c-57 25 -106 43 -108 41 -1 -2 -10 -87 -18 -188 -8 -101
-16 -201 -19 -221 l-4 -38 336 0 337 0 260 95 c142 52 264 95 271 95 6 0 16
-10 22 -22 8 -18 11 1 11 91 1 89 -2 112 -12 108 -26 -10 -375 -97 -389 -97
-8 0 -43 21 -78 47 -58 44 -64 46 -74 29 -6 -10 -41 -59 -77 -109 l-66 -90
-119 -49 c-65 -28 -131 -55 -146 -61 -23 -9 -31 -8 -44 4 -14 14 -6 29 88 160
150 208 358 483 368 487 5 2 26 -12 47 -31 104 -94 219 -177 238 -173 61 14
185 52 185 56 0 3 -56 53 -125 110 -69 57 -125 109 -125 115 0 5 18 55 40 109
22 55 40 101 40 103 0 5 -86 1 -248 -12z"/>
<path d="M1 755 l-1 -150 32 54 31 53 -31 97 -31 96 0 -150z"/>
<path d="M4678 763 c-30 -43 -141 -206 -248 -362 l-193 -283 28 -59 29 -59
219 0 220 0 -19 23 c-10 12 -47 52 -82 88 l-63 66 236 224 c217 204 235 225
218 237 -91 64 -252 177 -269 189 -21 13 -24 10 -76 -64z"/>
<path d="M3216 291 c-3 -9 -15 -68 -26 -131 -12 -63 -24 -125 -27 -137 l-5
-23 255 0 c141 0 258 3 260 7 2 5 7 19 10 33 6 24 -5 31 -228 146 -188 97
-236 118 -239 105z"/>
</g>
</svg>
